<?xml version="1.0" standalone="no"?>
<!DOCTYPE svg PUBLIC "-//W3C//DTD SVG 20010904//EN"
 "http://www.w3.org/TR/2001/REC-SVG-20010904/DTD/svg10.dtd">
<svg version="1.0" xmlns="http://www.w3.org/2000/svg"
 width="300.000000pt" height="140.000000pt" viewBox="0 0 300.000000 140.000000"
 preserveAspectRatio="xMidYMid meet">

<g transform="translate(0.000000,140.000000) scale(0.100000,-0.100000)"
fill="#000000" stroke="none">
<path d="M628 1311 c-64 -26 -66 -28 -41 -37 20 -7 -1 -9 -78 -9 -123 0 -167
-17 -254 -97 -57 -52 -130 -152 -121 -167 9 -14 327 -182 335 -176 5 2 18 33
31 67 30 82 76 153 133 206 69 62 92 71 121 43 12 -12 38 -49 57 -82 l34 -60
90 4 c97 4 154 25 224 84 l34 29 -64 58 c-76 69 -197 131 -294 151 -95 20
-128 18 -207 -14z"/>
<path d="M1535 705 c0 -297 1 -417 2 -267 2 150 2 393 0 540 -1 147 -2 24 -2
-273z"/>
<path d="M1205 979 c-11 -5 -91 -33 -178 -62 l-159 -53 45 -55 c102 -125 157
-239 157 -325 0 -39 -3 -44 -27 -50 -15 -4 -58 -8 -97 -8 -79 -1 -82 -3 -121
-78 -33 -63 -48 -139 -41 -202 10 -76 13 -79 77 -60 164 48 312 169 391 318
18 35 19 44 8 77 l-13 38 -31 -22 c-25 -17 -23 -12 16 31 91 102 111 227 63
381 -27 86 -38 94 -90 70z"/>
<path d="M1740 875 c0 -57 4 -95 10 -95 6 0 10 20 10 45 l0 45 50 0 50 0 0
-46 c0 -28 4 -44 11 -42 16 5 18 188 2 188 -8 0 -13 -15 -13 -40 l0 -40 -50 0
-50 0 0 40 c0 22 -4 40 -10 40 -6 0 -10 -38 -10 -95z"/>
<path d="M1970 874 c0 -71 3 -95 12 -92 7 3 33 38 58 79 l45 74 3 -77 c4 -111
22 -97 22 17 0 121 -13 124 -74 18 l-46 -78 0 78 c0 44 -4 77 -10 77 -6 0 -10
-39 -10 -96z"/>
<path d="M2170 960 c0 -5 14 -10 30 -10 l30 0 0 -85 c0 -50 4 -85 10 -85 6 0
10 35 10 85 l0 85 30 0 c17 0 30 5 30 10 0 6 -30 10 -70 10 -40 0 -70 -4 -70
-10z"/>
<path d="M2370 875 c0 -69 3 -95 13 -95 6 0 33 35 59 78 l48 77 0 -77 c0 -45
4 -78 10 -78 6 0 10 38 10 95 0 69 -3 95 -12 95 -7 0 -33 -35 -58 -78 l-45
-77 -3 78 c-4 110 -22 96 -22 -18z"/>
<path d="M75 878 c-25 -83 -29 -201 -11 -287 29 -139 131 -313 180 -309 21 2
23 5 15 26 -18 48 -8 45 15 -5 28 -60 94 -135 148 -169 58 -37 171 -64 265
-64 l82 0 -10 32 c-5 18 -9 69 -9 113 -1 44 -9 118 -19 165 l-17 85 -45 -5
c-24 -3 -98 -5 -164 -5 -111 0 -124 2 -177 28 l-57 28 19 49 c11 28 31 68 45
90 l26 41 -32 60 c-18 33 -51 76 -73 95 -38 33 -133 84 -155 84 -6 0 -17 -24
-26 -52z"/>
<path d="M655 825 c-108 -38 -123 -168 -26 -232 111 -74 251 60 181 174 -36
59 -92 80 -155 58z m15 -40 c0 -8 -7 -15 -15 -15 -16 0 -20 12 -8 23 11 12 23
8 23 -8z"/>
<path d="M1740 495 c0 -43 4 -75 10 -75 6 0 10 11 10 24 0 18 7 26 27 31 36 9
53 23 53 46 0 28 -28 49 -66 49 l-34 0 0 -75z m75 25 c0 -20 -6 -26 -27 -28
-25 -3 -28 0 -28 28 0 28 3 31 28 28 21 -2 27 -8 27 -28z"/>
<path d="M1912 554 c-30 -20 -31 -93 -2 -119 46 -41 110 -9 110 57 0 66 -56
99 -108 62z m73 -8 c22 -16 26 -76 6 -100 -31 -37 -91 -3 -91 51 0 25 32 63
53 63 7 0 22 -6 32 -14z"/>
<path d="M2103 555 c-47 -33 -36 -115 19 -134 20 -7 36 -7 47 -1 13 8 11 9
-11 10 -35 0 -68 32 -68 65 0 34 36 68 66 62 13 -2 24 0 24 4 0 14 -54 10 -77
-6z"/>
<path d="M2255 499 c-26 -67 -29 -104 -5 -60 15 29 65 29 80 0 7 -11 14 -18
17 -15 7 7 -47 146 -57 146 -5 0 -20 -32 -35 -71z m52 12 c13 -35 9 -41 -25
-41 -19 0 -23 4 -17 18 4 9 10 25 12 35 8 25 17 21 30 -12z"/>
<path d="M2380 560 c0 -5 9 -10 20 -10 18 0 20 -7 20 -65 0 -37 4 -65 10 -65
6 0 10 28 10 65 0 58 2 65 20 65 11 0 20 5 20 10 0 6 -22 10 -50 10 -27 0 -50
-4 -50 -10z"/>
<path d="M2541 544 c-42 -53 -14 -127 48 -127 40 0 60 19 67 64 12 75 -70 120
-115 63z m81 -1 c37 -33 15 -113 -32 -113 -49 0 -70 85 -28 114 28 20 37 20
60 -1z"/>
<path d="M2720 542 c0 -16 -3 -50 -6 -76 -5 -31 -3 -46 5 -46 7 0 11 21 11 56
0 66 13 63 30 -6 7 -27 17 -50 24 -50 7 0 21 26 31 58 l19 57 7 -53 c9 -65 19
-79 19 -26 0 54 -11 114 -21 114 -4 0 -15 -24 -24 -52 -9 -29 -19 -60 -22 -68
-3 -9 -15 12 -27 49 -24 71 -46 91 -46 43z"/>
</g>
</svg>
